<svg id="about" xmlns="http://www.w3.org/2000/svg" width="8.11" height="150.655" viewBox="0 0 16.22 301.31">
  <metadata><?xpacket begin="﻿" id="W5M0MpCehiHzreSzNTczkc9d"?>
<x:xmpmeta xmlns:x="adobe:ns:meta/" x:xmptk="Adobe XMP Core 5.6-c138 79.159824, 2016/09/14-01:09:01        ">
   <rdf:RDF xmlns:rdf="http://www.w3.org/1999/02/22-rdf-syntax-ns#">
      <rdf:Description rdf:about=""/>
   </rdf:RDF>
</x:xmpmeta>
                                                                                                    
                                                                                                    
                                                                                                    
                                                                                                    
                                                                                                    
                                                                                                    
                                                                                                    
                                                                                                    
                                                                                                    
                                                                                                    
                                                                                                    
                                                                                                    
                                                                                                    
                                                                                                    
                                                                                                    
                                                                                                    
                                                                                                    
                                                                                                    
                                                                                                    
                                                                                                    
                           
<?xpacket end="w"?></metadata>
<defs>
    <style>
      .cls-1 {
        fill: #262626;
        fill-rule: evenodd;
      }
    </style>
  </defs>
  <path id="ABOUT-2" data-name="ABOUT" class="cls-1" d="M1807.46,1116.79v2.95l3.36,1.08v5.69l-3.36,1.06v2.95l15.58-5.02V1122Zm12.19,6.91-6.69,2.13v-4.3Zm-12.19,34.08v6.2a8.166,8.166,0,0,0,.38,2.69,3.925,3.925,0,0,0,3.94,2.81,3.321,3.321,0,0,0,2.36-.85,1.422,1.422,0,1,1,2.51-.13,3.871,3.871,0,0,0,5.16-.6,5.759,5.759,0,0,0,1.23-3.94v-6.18h-15.58Zm2.47,2.78h4.06v3.35a2.754,2.754,0,0,1-.57,1.92,1.863,1.863,0,0,1-1.47.63,1.907,1.907,0,0,1-1.47-.6,2.874,2.874,0,0,1-.55-1.95v-3.35Zm10.66,0v3.3a2.71,2.71,0,0,1-.57,1.88,2.1,2.1,0,0,1-3.01-.01,2.823,2.823,0,0,1-.55-1.89v-3.28h4.13Zm0.77,37.9a10.513,10.513,0,0,0-12.17,0,6.336,6.336,0,0,0-2.07,5,6.5,6.5,0,0,0,2.02,5.03,8.862,8.862,0,0,0,6.12,1.93,8.655,8.655,0,0,0,6.05-1.93,6,6,0,0,0,1.52-2.2,7.287,7.287,0,0,0,.52-2.81,6.471,6.471,0,0,0-1.99-5.02h0Zm-10.24,7.99a3.8,3.8,0,0,1,0-5.94,6.563,6.563,0,0,1,4.1-1.11,6.678,6.678,0,0,1,4.13,1.11,3.767,3.767,0,0,1,0,5.94,6.746,6.746,0,0,1-4.13,1.09A6.629,6.629,0,0,1,1811.12,1206.45Zm11.92,31.58h-9.7a6.217,6.217,0,1,0,0,12.41h9.7v-2.78h-9.7a3.5,3.5,0,0,1-2.76-.96,4.037,4.037,0,0,1,0-4.93,3.5,3.5,0,0,1,2.76-.96h9.7v-2.78Zm-2.45,39.01v4.74h-13.13v2.78h13.13v4.75h2.45v-12.27h-2.45Z" transform="translate(-1807.12 -988)"/>
  <path class="cls-1" d="M1814.61,988h3.05v60.93h-3.05V988Z" transform="translate(-1807.12 -988)"/>
</svg>
